<svg id="_0168_under_constructions_1" xmlns="http://www.w3.org/2000/svg" xmlns:xlink="http://www.w3.org/1999/xlink" viewBox="0 0 500 500" data-imageid="under-constructions-1-75" imageName="Under Constructions 1" class="illustrations_image" style="width: 166px;"><defs><style>.cls-1_under-constructions-1-75{fill:url(#linear-gradient);}.cls-1_under-constructions-1-75,.cls-2_under-constructions-1-75,.cls-3_under-constructions-1-75,.cls-4_under-constructions-1-75,.cls-5_under-constructions-1-75,.cls-6_under-constructions-1-75,.cls-7_under-constructions-1-75,.cls-8_under-constructions-1-75,.cls-9_under-constructions-1-75,.cls-10_under-constructions-1-75,.cls-11_under-constructions-1-75,.cls-12_under-constructions-1-75,.cls-13_under-constructions-1-75,.cls-14_under-constructions-1-75,.cls-15_under-constructions-1-75,.cls-16_under-constructions-1-75,.cls-17_under-constructions-1-75,.cls-18_under-constructions-1-75,.cls-19_under-constructions-1-75,.cls-20_under-constructions-1-75,.cls-21_under-constructions-1-75,.cls-22_under-constructions-1-75,.cls-23_under-constructions-1-75,.cls-24_under-constructions-1-75,.cls-25_under-constructions-1-75,.cls-26_under-constructions-1-75{stroke-width:0px;}.cls-2_under-constructions-1-75{fill:url(#linear-gradient-11-under-constructions-1-75);}.cls-3_under-constructions-1-75{fill:url(#linear-gradient-12-under-constructions-1-75);}.cls-4_under-constructions-1-75{fill:url(#linear-gradient-13-under-constructions-1-75);}.cls-5_under-constructions-1-75{fill:url(#linear-gradient-10-under-constructions-1-75);}.cls-6_under-constructions-1-75{fill:url(#linear-gradient-17-under-constructions-1-75);}.cls-7_under-constructions-1-75{fill:url(#linear-gradient-16-under-constructions-1-75);}.cls-8_under-constructions-1-75{fill:url(#linear-gradient-19-under-constructions-1-75);}.cls-9_under-constructions-1-75{fill:url(#linear-gradient-15-under-constructions-1-75);}.cls-10_under-constructions-1-75{fill:url(#linear-gradient-23-under-constructions-1-75);}.cls-11_under-constructions-1-75{fill:url(#linear-gradient-21-under-constructions-1-75);}.cls-12_under-constructions-1-75{fill:url(#linear-gradient-18-under-constructions-1-75);}.cls-13_under-constructions-1-75{fill:url(#linear-gradient-14-under-constructions-1-75);}.cls-14_under-constructions-1-75{fill:url(#linear-gradient-22-under-constructions-1-75);}.cls-15_under-constructions-1-75{fill:url(#linear-gradient-20-under-constructions-1-75);}.cls-16_under-constructions-1-75{fill:url(#linear-gradient-4-under-constructions-1-75);}.cls-17_under-constructions-1-75{fill:url(#linear-gradient-2-under-constructions-1-75);}.cls-18_under-constructions-1-75{fill:url(#linear-gradient-3-under-constructions-1-75);}.cls-19_under-constructions-1-75{fill:url(#linear-gradient-8-under-constructions-1-75);}.cls-20_under-constructions-1-75{fill:url(#linear-gradient-9-under-constructions-1-75);}.cls-21_under-constructions-1-75{fill:url(#linear-gradient-7-under-constructions-1-75);}.cls-22_under-constructions-1-75{fill:url(#linear-gradient-5-under-constructions-1-75);}.cls-23_under-constructions-1-75{fill:url(#linear-gradient-6-under-constructions-1-75);}.cls-24_under-constructions-1-75{isolation:isolate;opacity:.24;}.cls-24_under-constructions-1-75,.cls-26_under-constructions-1-75{fill:#68e1fd;}.cls-27_under-constructions-1-75{stroke:#68e1fd;stroke-miterlimit:10;stroke-width:.73px;}.cls-27_under-constructions-1-75,.cls-25_under-constructions-1-75{fill:#fff;}</style><linearGradient id="linear-gradient-under-constructions-1-75" x1="-868.22" y1="1506.34" x2="-873.99" y2="1276.67" gradientTransform="translate(1289 1743.27) scale(1 -1)" gradientUnits="userSpaceOnUse"><stop offset="0" stop-color="#010101" stop-opacity="0"/><stop offset=".95" stop-color="#010101"/></linearGradient><linearGradient id="linear-gradient-2-under-constructions-1-75" x1="-895.16" y1="1392.18" x2="-814.2" y2="1392.18" xlink:href="#linear-gradient-under-constructions-1-75"/><linearGradient id="linear-gradient-3-under-constructions-1-75" x1="-859.93" y1="1523.42" x2="-862.39" y2="1425.46" xlink:href="#linear-gradient-under-constructions-1-75"/><linearGradient id="linear-gradient-4-under-constructions-1-75" x1="-1034.33" y1="1412.93" x2="-1030.51" y2="1263.18" xlink:href="#linear-gradient-under-constructions-1-75"/><linearGradient id="linear-gradient-5-under-constructions-1-75" x1="-1033.88" y1="1336.85" x2="-1031.41" y2="1227.37" gradientTransform="translate(1285.03 1701.57) scale(1 -1)" xlink:href="#linear-gradient-under-constructions-1-75"/><linearGradient id="linear-gradient-6-under-constructions-1-75" x1="-1039.1" y1="1392.39" x2="-1028.39" y2="1290.73" xlink:href="#linear-gradient-under-constructions-1-75"/><linearGradient id="linear-gradient-7-under-constructions-1-75" x1="-1136.68" y1="1581.2" x2="-919.46" y2="1581.2" gradientTransform="translate(1285.03 1701.57) scale(1 -1)" xlink:href="#linear-gradient-under-constructions-1-75"/><linearGradient id="linear-gradient-8-under-constructions-1-75" x1="-1094.96" y1="1661.49" x2="-1075.9" y2="1661.49" xlink:href="#linear-gradient-under-constructions-1-75"/><linearGradient id="linear-gradient-9-under-constructions-1-75" x1="-968.2" y1="1644.2" x2="-949.14" y2="1644.2" xlink:href="#linear-gradient-under-constructions-1-75"/><linearGradient id="linear-gradient-10-under-constructions-1-75" x1="-1032.47" y1="1441.9" x2="-1029.18" y2="1526.69" gradientTransform="translate(1289 1743.27) scale(1 -1)" gradientUnits="userSpaceOnUse"><stop offset="0" stop-color="#fff" stop-opacity="0"/><stop offset=".95" stop-color="#fff"/></linearGradient><linearGradient id="linear-gradient-11-under-constructions-1-75" x1="-1021.38" y1="1397.73" x2="-1110.28" y2="1690.78" xlink:href="#linear-gradient-under-constructions-1-75"/><linearGradient id="linear-gradient-12-under-constructions-1-75" x1="-1042.64" y1="1481.73" x2="-1021.79" y2="1361" xlink:href="#linear-gradient-10-under-constructions-1-75"/><linearGradient id="linear-gradient-13-under-constructions-1-75" x1="-1241.44" y1="1437.41" x2="-1209.34" y2="1436.59" xlink:href="#linear-gradient-under-constructions-1-75"/><linearGradient id="linear-gradient-14-under-constructions-1-75" x1="-839.53" y1="1437.51" x2="-810.98" y2="1436.41" xlink:href="#linear-gradient-under-constructions-1-75"/><linearGradient id="linear-gradient-15-under-constructions-1-75" x1="-1110.87" y1="1453.02" x2="-1096.88" y2="1374.82" xlink:href="#linear-gradient-under-constructions-1-75"/><linearGradient id="linear-gradient-16-under-constructions-1-75" x1="-889.98" y1="1490.13" x2="-875.99" y2="1411.93" xlink:href="#linear-gradient-under-constructions-1-75"/><linearGradient id="linear-gradient-17-under-constructions-1-75" x1="-1221.04" y1="1433.82" x2="-1207.04" y2="1355.62" xlink:href="#linear-gradient-under-constructions-1-75"/><linearGradient id="linear-gradient-18-under-constructions-1-75" x1="-827.52" y1="1393.68" x2="-887.62" y2="1396.97" xlink:href="#linear-gradient-under-constructions-1-75"/><linearGradient id="linear-gradient-19-under-constructions-1-75" x1="-832.04" y1="1362.95" x2="-832.04" y2="1346.21" xlink:href="#linear-gradient-under-constructions-1-75"/><linearGradient id="linear-gradient-20-under-constructions-1-75" x1="-844.95" y1="1390.95" x2="-818.92" y2="1390.95" xlink:href="#linear-gradient-10-under-constructions-1-75"/><linearGradient id="linear-gradient-21-under-constructions-1-75" x1="-1237.46" y1="1393.68" x2="-1297.56" y2="1396.97" xlink:href="#linear-gradient-under-constructions-1-75"/><linearGradient id="linear-gradient-22-under-constructions-1-75" x1="-1241.98" y1="1362.95" x2="-1241.98" y2="1346.21" xlink:href="#linear-gradient-under-constructions-1-75"/><linearGradient id="linear-gradient-23-under-constructions-1-75" x1="-1254.89" y1="1390.95" x2="-1228.85" y2="1390.95" xlink:href="#linear-gradient-10-under-constructions-1-75"/></defs><path id="background_under-constructions-1-75" class="cls-24_under-constructions-1-75 targetColor" d="M22.5,209.13c17.4-21.18,42.23-34.89,61.88-54.03,9.9-9.63,18.44-20.63,28.88-29.62,23.98-20.58,56.49-29.11,88.08-29.43,31.59-.32,62.74,6.88,93.37,14.55,45.5,11.38,91.79,24.36,130.02,51.56,13.67,9.72,26.06,21.1,38.41,32.44,11.63,10.68,23.72,22.07,28.57,37.1,7.89,24.43-5.38,50.06-10.59,75.16-2,9.7-2.89,19.92-7.79,28.53-11.55,20.26-38.97,23.24-62.26,23.85l-245.9,6.48c-47.26,1.25-98.41,1.36-136.61-26.51-23.44-17.17-22.02-35.03-21.18-60.26.9-26.82-3.75-46.84,15.12-69.82Z" style="fill: rgb(255, 69, 26);"/><g id="tractor_under-constructions-1-75"><rect class="cls-26_under-constructions-1-75 targetColor" x="367.49" y="223.36" width="103.72" height="140.76" rx="23.75" ry="23.75" style="fill: rgb(255, 69, 26);"/><rect class="cls-1_under-constructions-1-75" x="367.49" y="223.36" width="103.72" height="140.76" rx="23.75" ry="23.75"/><rect class="cls-26_under-constructions-1-75 targetColor" x="388.9" y="333.67" width="88.91" height="33.75" rx="10.37" ry="10.37" style="fill: rgb(255, 69, 26);"/><rect class="cls-17_under-constructions-1-75" x="393.84" y="338.05" width="80.97" height="26.09" rx="8.7" ry="8.7"/><rect class="cls-18_under-constructions-1-75" x="400.42" y="238.45" width="54.88" height="59.27"/></g><g id="laptop_under-constructions-1-75"><rect class="cls-26_under-constructions-1-75 targetColor" x="92.82" y="169.69" width="321.24" height="200.2" rx="18.57" ry="18.57" style="fill: rgb(255, 69, 26);"/><rect class="cls-16_under-constructions-1-75" x="95.01" y="167.5" width="316.09" height="199.47" rx="18.39" ry="18.39"/><rect class="cls-25_under-constructions-1-75" x="100.73" y="177.56" width="305.79" height="175.92" rx="16.98" ry="16.98"/><rect class="cls-24_under-constructions-1-75 targetColor" x="121.12" y="202.75" width="83.92" height="47.74" style="fill: rgb(255, 69, 26);"/><rect class="cls-24_under-constructions-1-75 targetColor" x="118.31" y="266.27" width="277.76" height="14.6" style="fill: rgb(255, 69, 26);"/><rect class="cls-27_under-constructions-1-75" x="213.59" y="203.98" width="83.92" height="47.74" rx="5.28" ry="5.28"/><rect class="cls-24_under-constructions-1-75 targetColor" x="310.01" y="201.61" width="90.21" height="54.11" style="fill: rgb(255, 69, 26);"/><path class="cls-26_under-constructions-1-75 targetColor" d="M423.22,372.36v7.08c.01,5.24-4.23,9.49-9.46,9.5-.01,0-.03,0-.04,0H88.79c-5.24.01-9.49-4.23-9.5-9.46,0-.01,0-.03,0-.04v-7.08c0-.96.14-1.92.43-2.84h0c1.24-3.96,4.92-6.65,9.07-6.63h324.93c4.15-.02,7.82,2.67,9.06,6.63h0c.3.92.45,1.88.44,2.84Z" style="fill: rgb(255, 69, 26);"/><path class="cls-22_under-constructions-1-75" d="M422.78,369.49h0c-1.23,3.97-4.9,6.67-9.06,6.67H88.79c-4.16,0-7.83-2.7-9.07-6.67h0c1.24-3.96,4.92-6.65,9.07-6.63h324.93c4.15-.02,7.82,2.67,9.06,6.63Z"/><path class="cls-23_under-constructions-1-75" d="M204.2,362.63h94.34v3.85c0,5.21-4.22,9.43-9.43,9.43h-75.47c-5.21,0-9.43-4.22-9.43-9.43v-3.85h0Z"/></g><g id="constructions_under-constructions-1-75"><path class="cls-26_under-constructions-1-75 targetColor" d="M364.55,167.26l-3.53-8.41-7.31-17.42-1.55-3.71-.02-.04-2-4.76-6.44-15.38-3.81-9.1-7.05-16.81-.67-1.59-15.83-2.14-4.25-.58-29.98-4.06-3.75-.51-27.15-3.67-2.11-.29-25.34-3.43-4.48-.61-23.66-3.2-3.97-.53-43.32,50.72,12.44,14.1,4.21-4.28,3.4-3.45,1.26-1.29,12.65-12.86,3.04-3.08,15.1-15.34,1.22-1.23,1.09.17,2.52.38,109.59,16.53,20.04,58.29h4.53l-20.89-60.77-.48-1.39-24.59-3.71-1.23-.18-30.6-4.62-2.1-.31-23.8-3.59-1.73-.27-26.95-4.06-3.34-.51-3.22-.49-.39-.06-.73.74-4.77,4.84-9.86,10.01-7.59,7.72-7.28,7.41-4.75,4.82-.45.47-2.56,2.59-1.19,1.21-6.94-7.84,1.12-1.31,38.24-44.8,3.95.53,17.32,2.35,5.91.8,1.54.21,6.09.82,15.89,2.15,10.4,1.41,18.8,2.54,6.42.88.63.09,5.62.75,20.37,2.76,7.29.99.22.03,4.93.67,10.41,1.41,5.16,12.29,2.27,5.41,2.31,5.5,2.14,5.11,3.71,8.87,2.18,5.2,2.29,5.48,1.74,4.14,4.78,11.4,2.17,5.2,1.88,4.48,1.1,2.63h4.66l-1.02-2.43Z" style="fill: rgb(255, 69, 26);"/><path class="cls-21_under-constructions-1-75" d="M364.55,167.26l-3.53-8.41-7.31-17.42-1.55-3.71-.02-.04-2-4.76-6.44-15.38-3.81-9.1-7.05-16.81-.67-1.59-15.83-2.14-4.25-.58-29.98-4.06-3.75-.51-27.15-3.67-2.11-.29-25.34-3.43-4.48-.61-23.66-3.2-3.97-.53-43.32,50.72,12.44,14.1,4.21-4.28,3.4-3.45,1.26-1.29,12.65-12.86,3.04-3.08,15.1-15.34,1.22-1.23,1.09.17,2.52.38,109.59,16.53,20.04,58.29h4.53l-20.89-60.77-.48-1.39-24.59-3.71-1.23-.18-30.6-4.62-2.1-.31-23.8-3.59-1.73-.27-26.95-4.06-3.34-.51-3.22-.49-.39-.06-.73.74-4.77,4.84-9.86,10.01-7.59,7.72-7.28,7.41-4.75,4.82-.45.47-2.56,2.59-1.19,1.21-6.94-7.84,1.12-1.31,38.24-44.8,3.95.53,17.32,2.35,5.91.8,1.54.21,6.09.82,15.89,2.15,10.4,1.41,18.8,2.54,6.42.88.63.09,5.62.75,20.37,2.76,7.29.99.22.03,4.93.67,10.41,1.41,5.16,12.29,2.27,5.41,2.31,5.5,2.14,5.11,3.71,8.87,2.18,5.2,2.29,5.48,1.74,4.14,4.78,11.4,2.17,5.2,1.88,4.48,1.1,2.63h4.66l-1.02-2.43Z"/><polygon class="cls-26_under-constructions-1-75 targetColor" points="382.14 169.69 379.79 169.69 345.7 83.64 195.62 61.31 141.19 124.31 152.92 138.18 152.92 164.92 150.73 164.92 150.73 138.98 138.3 124.3 194.76 58.96 347.26 81.65 382.14 169.69" style="fill: rgb(255, 69, 26);"/><path class="cls-26_under-constructions-1-75 targetColor" d="M338.38,88.02l-140.54-19.04-2.21,2.58-41.11,48.14.62.71,7.01,7.94,2.85,3.23,1.96,2.23,38.32-38.94,2.56-2.61,110.72,16.66,2.47.38,20.77,60.39h4.55l-3.85-11.2-1.65-4.78-7.1-20.64-1.77-5.17-6.87-19.98-.85-2.48-4.93-.74-21.77-3.28-7.76-1.16-24.37-3.67-8.03-1.21-18.63-2.79-7.35-1.11-21.35-3.22-3.76-.57-2.55,2.59-5.11,5.2-13.46,13.68-4.45,4.52-10.99,11.18-2.61,2.65-1.97-2.23-.39-.45-4.57-5.18,5.37-6.29,4.48-5.25,9.91-11.62,4.55-5.33,12.82-15.02,2.23-2.61,18.18,2.47,7.51,1.02,22.18,3,4.89.67,24.32,3.3,6.77.92,26.71,3.63,7.04.95,15.68,2.13,2.51.34,7.37,17.56,2.33,5.58,7.85,18.7,2.22,5.29,8.6,20.49,2.17,5.19,2.06,4.91h4.66l-34.22-81.67Z" style="fill: rgb(255, 69, 26);"/><polygon class="cls-26_under-constructions-1-75 targetColor" points="368.04 160.8 365.89 164.78 364.55 167.26 363.24 169.69 358.27 169.69 359.81 167.06 361.83 163.62 357.93 162.58 342.5 158.49 338.26 157.37 340.84 153.72 349.24 141.85 352.16 137.72 352.18 137.68 352.14 137.67 346.94 136.38 333.75 133.07 329.35 131.97 331.97 127.91 338.9 117.2 341.43 113.28 336.6 111.7 325.1 107.93 319.98 106.25 319.31 104.7 313.83 91.92 313.77 91.79 313.6 91.89 297.54 101.42 293.49 103.83 292.73 104.28 292.26 103.65 289.78 100.26 280.32 87.38 280.08 87.04 279.69 87.3 265.41 96.59 261.66 99.03 260.34 99.89 259.57 98.72 257.38 95.38 249.55 83.45 238.76 92.58 235.77 95.12 234.84 95.9 234.04 94.86 231.41 91.48 222.1 79.5 221.39 78.58 220.55 79.29 210.06 88.26 207.08 90.8 202.76 94.49 201.46 95.6 200.45 95.56 198.64 95.49 194.65 95.33 183.75 94.91 184.79 105.35 185.18 109.17 185.35 110.9 185.72 114.59 182.32 113.98 180.73 113.69 177.2 113.06 170.25 111.82 169.91 120.47 169.74 124.87 169.67 126.84 169.61 128.17 168.4 128.13 164.56 127.97 164.71 125.76 164.78 124.84 165.58 113.37 165.95 107.98 170.06 108.12 180.03 108.44 179.97 96.5 179.94 91.38 184.51 91.17 199.41 90.49 199.69 90.48 200.53 89.8 214.65 78.49 217.74 76.01 219.29 74.77 221.59 72.93 223.77 75.38 225.24 77.03 228.18 80.32 235.6 88.64 244.07 82.47 247.43 80.03 249.11 78.8 250.4 77.87 251.22 79.09 252.32 80.7 254.47 83.88 261.77 94.67 273.27 86.42 276.64 84 278.37 82.76 280.51 81.23 282.12 83.27 283.41 84.92 285.94 88.14 294.05 98.45 306.31 90.9 310.12 88.55 312.1 87.33 315.09 85.49 316.34 87.91 317.16 89.5 318.76 92.58 323.71 102.16 334.32 106.29 339.89 108.44 342.72 109.54 347.18 111.28 345.05 115.11 343.7 117.54 341.04 122.31 337.43 128.79 344.76 131.18 350.14 132.92 352.89 133.82 357.41 135.28 355.11 139.1 353.71 141.43 350.98 145.99 345.8 154.61 355.75 157.39 361.02 158.85 363.71 159.59 368.04 160.8" style="fill: rgb(255, 69, 26);"/><rect class="cls-27_under-constructions-1-75" x="116.45" y="191.91" width="83.92" height="47.74" rx="5.28" ry="5.28"/><circle class="cls-26_under-constructions-1-75 targetColor" cx="203.57" cy="81.78" r="9.53" style="fill: rgb(255, 69, 26);"/><circle class="cls-26_under-constructions-1-75 targetColor" cx="329.69" cy="99.44" r="11.21" style="fill: rgb(255, 69, 26);"/><circle class="cls-19_under-constructions-1-75" cx="203.57" cy="81.78" r="9.53"/><circle class="cls-26_under-constructions-1-75 targetColor" cx="206.86" cy="80.41" r="9.53" style="fill: rgb(255, 69, 26);"/><circle class="cls-20_under-constructions-1-75" cx="330.33" cy="99.07" r="9.53"/><circle class="cls-26_under-constructions-1-75 targetColor" cx="333.62" cy="97.7" r="9.53" style="fill: rgb(255, 69, 26);"/><polygon class="cls-26_under-constructions-1-75 targetColor" points="160.8 135.86 166.97 133.8 164.85 131.17 158.68 133.5 160.8 135.86" style="fill: rgb(255, 69, 26);"/><polygon class="cls-26_under-constructions-1-75 targetColor" points="150.78 124.2 156.96 122.14 154.84 119.5 148.67 121.83 150.78 124.2" style="fill: rgb(255, 69, 26);"/><rect class="cls-26_under-constructions-1-75 targetColor" x="150.58" y="163.48" width="2.25" height="21.51" style="fill: rgb(255, 69, 26);"/><rect class="cls-26_under-constructions-1-75 targetColor" x="195.62" y="61.3" width="2.91" height="10.18" style="fill: rgb(255, 69, 26);"/><polygon class="cls-26_under-constructions-1-75 targetColor" points="150.45 121.56 150.78 124.2 140.86 126.14 140.86 123.23 150.45 121.56" style="fill: rgb(255, 69, 26);"/><polygon class="cls-26_under-constructions-1-75 targetColor" points="338.35 88.02 344.54 82.7 345.7 83.64 339.29 90.01 338.35 88.02" style="fill: rgb(255, 69, 26);"/><path class="cls-26_under-constructions-1-75 targetColor" d="M153.57,194.97c-.14.61-.48,1.15-.96,1.55-.53.45-1.24.63-1.93.48-.7-.09-1.34-.43-1.8-.96-.45-.57-.69-1.28-.67-2,.04-1.25.37-2.47.96-3.56.55-1.04,1.21-2.01,1.99-2.89l-.09.26c.14-4.21.37-8.41.63-12.62.14,4.22.25,8.42.28,12.63v.11l-.09.15c-.53.96-1.02,1.99-1.45,2.98-.45.94-.73,1.95-.84,2.98-.09.9.46,1.74,1.32,2.02,1.04.3,2.15-.17,2.65-1.14Z" style="fill: rgb(255, 69, 26);"/><circle class="cls-24_under-constructions-1-75 targetColor" cx="153.67" cy="195.89" r="2.57" style="fill: rgb(255, 69, 26);"/></g><g id="portal_under-constructions-1-75"><rect class="cls-26_under-constructions-1-75 targetColor" x="44.23" y="226.43" width="15.79" height="159.09" style="fill: rgb(255, 69, 26);"/><rect class="cls-24_under-constructions-1-75 targetColor" x="118.31" y="295.14" width="277.76" height="14.6" style="fill: rgb(255, 69, 26);"/><polygon class="cls-26_under-constructions-1-75 targetColor" points="59.68 280.9 452.8 309.63 452.8 336.53 59.3 311.7 59.68 280.9" style="fill: rgb(255, 69, 26);"/><polygon class="cls-5_under-constructions-1-75" points="59.68 280.9 452.8 309.63 452.8 336.53 59.3 311.7 59.68 280.9"/><path class="cls-25_under-constructions-1-75" d="M82.57,294.47l.96.07-.32,3.44c.57-.5,2.48-2.13,3.67-3.18l1.16.1-3.23,2.71,2.89,4.29-1.13-.1-2.42-3.65-.96.74-.2,2.64-.91-.08.5-6.99Z"/><path class="cls-25_under-constructions-1-75" d="M95.6,299.22l-3.45-.29-.19,2.47,3.85.3-.18.78-4.6-.35.54-7,4.55.35-.06.8-3.65-.29-.17,2.15,3.48.27-.13.81Z"/><path class="cls-25_under-constructions-1-75" d="M104.19,299.9l-3.48-.27-.19,2.47,3.85.3-.18.78-4.63-.39.54-7,4.55.36-.06.79-3.65-.28-.16,2.14,3.48.27-.06.84Z"/><path class="cls-25_under-constructions-1-75" d="M108.63,296.48l2.66.21c1.11-.06,2.07.79,2.13,1.9,0,.1,0,.21,0,.31-.05,1.14-1.01,2.02-2.14,1.97-.12,0-.24-.02-.36-.05l-1.67-.13-.22,2.89-.96-.07.57-7.05ZM109.32,299.89l1.62.13c.96.08,1.47-.35,1.53-1.16s-.48-1.32-1.31-1.39l-1.65-.13-.19,2.55Z"/><path class="cls-25_under-constructions-1-75" d="M125.87,301.29c-.14,1.93-1.36,3.55-3.56,3.39-2.06-.16-3.08-1.84-2.89-3.85s1.44-3.51,3.57-3.34c1.93.14,3.04,1.72,2.88,3.8ZM120.37,300.88c-.12,1.5.54,2.89,2.05,3s2.38-1.16,2.49-2.65-.52-2.84-2.06-2.96-2.37,1.11-2.48,2.58v.02Z"/><path class="cls-25_under-constructions-1-75" d="M131.02,298.21l-.33,4.21c-.13,1.66.75,2.18,1.64,2.24,1.05.09,1.83-.35,1.93-1.93l.33-4.21.96.07-.32,4.17c-.18,2.27-1.48,2.82-2.97,2.7s-2.67-.91-2.5-3.06l.33-4.23.94.03Z"/><path class="cls-25_under-constructions-1-75" d="M141.23,299.8l-2.25-.18.06-.79,5.45.42-.06.79-2.26-.17-.48,6.2-.96-.07.51-6.2Z"/><path class="cls-25_under-constructions-1-75" d="M276.15,309.44l-.33,4.21c-.13,1.65.74,2.17,1.64,2.24,1.05.08,1.83-.35,1.93-1.93l.33-4.21.96.07-.33,4.16c-.17,2.27-1.48,2.83-2.96,2.71s-2.68-.96-2.5-3.06l.33-4.24.94.04Z"/><path class="cls-25_under-constructions-1-75" d="M284.45,317.11l.54-6.99,1.23.1c.88,1.71,2.79,5.36,3.12,6.14h0c0-.9.09-2,.17-3.14l.21-2.73.88.07-.54,7-1.16-.1c-.81-1.59-2.79-5.51-3.17-6.31h0c0,.8-.1,1.98-.2,3.25l-.21,2.83-.88-.12Z"/><path class="cls-25_under-constructions-1-75" d="M295.02,310.89l2.49.19c1.76.06,3.13,1.54,3.07,3.3,0,.13-.02.26-.04.39.02,1.82-1.44,3.31-3.26,3.33-.11,0-.23,0-.34-.01l-2.46-.19.54-7ZM295.47,317.18l1.47.12c1.65.13,2.51-.96,2.64-2.58.26-1.29-.58-2.54-1.87-2.8-.12-.02-.24-.04-.36-.04l-1.46-.12-.42,5.42Z"/><path class="cls-25_under-constructions-1-75" d="M308.91,315.72l-3.48-.27-.19,2.47,3.85.29-.18.79-4.6-.36.54-7,4.55.35-.06.8-3.65-.28-.17,2.14,3.48.27-.1.8Z"/><path class="cls-25_under-constructions-1-75" d="M313.99,316.26l-.24,3.08-.91-.08.54-6.99,2.73.21c1.44.11,2.14.96,2.06,2.04-.01.77-.57,1.42-1.33,1.55.57.19,1.02.66.96,1.87v.31c-.07.46-.07.93,0,1.4l-.9-.07c-.09-.5-.09-1.02,0-1.52v-.14c.08-.96-.17-1.44-1.42-1.54l-1.49-.12ZM314.04,315.48l1.52.12c1.07.09,1.57-.29,1.63-1.07s-.39-1.2-1.34-1.28l-1.63-.13-.18,2.36Z"/><path class="cls-25_under-constructions-1-75" d="M330.07,318.65c-.39,1.26-1.64,2.05-2.95,1.86-2.09-.16-3.02-1.84-2.89-3.85.13-2.01,1.33-3.54,3.46-3.38,1.34-.02,2.46,1,2.59,2.33l-.96-.08c-.15-.86-.89-1.49-1.76-1.48-1.55-.12-2.28,1.24-2.39,2.65-.11,1.41.38,2.89,1.99,2.99.83.11,1.63-.36,1.93-1.15l.98.11Z"/><path class="cls-25_under-constructions-1-75" d="M340.19,317.86c-.15,1.93-1.36,3.56-3.56,3.39-2.06-.15-3.08-1.84-2.89-3.85s1.44-3.5,3.56-3.34c2.12.16,3.04,1.72,2.89,3.8ZM334.67,317.45c-.12,1.51.55,2.89,2.05,3.01s2.38-1.16,2.49-2.66c.12-1.49-.52-2.83-2.05-2.96s-2.38,1.12-2.49,2.6Z"/><path class="cls-25_under-constructions-1-75" d="M343.95,321.71l.54-6.99,1.22.09c.89,1.72,2.79,5.36,3.13,6.15h0c0-.9.1-2.01.18-3.15l.21-2.72.88.07-.54,6.99-1.16-.09c-.81-1.59-2.78-5.51-3.16-6.32h0c0,.8-.11,1.98-.2,3.25l-.21,2.79-.89-.07Z"/><path class="cls-25_under-constructions-1-75" d="M354.54,320.57c.09.84.83,1.47,1.67,1.42,1.09.09,1.56-.39,1.61-1.05s-.25-1.13-1.63-1.57c-1.62-.53-2.15-1.14-2.07-2.12s.91-1.83,2.46-1.71,2.28,1.15,2.31,2.07l-.96-.07c-.04-.75-.68-1.33-1.44-1.29-.01,0-.02,0-.04,0-.86-.07-1.36.28-1.41.96s.32.96,1.52,1.34c1.93.64,2.25,1.44,2.18,2.35-.09,1.13-.96,1.93-2.7,1.81-1.3.08-2.42-.91-2.5-2.21,0-.01,0-.02,0-.04l.98.1Z"/><path class="cls-25_under-constructions-1-75" d="M364.48,317.06l-2.25-.17.06-.79,5.45.41-.06.8-2.26-.18-.48,6.21-.96-.08.51-6.2Z"/><path class="cls-25_under-constructions-1-75" d="M371.87,320.78l-.24,3.08-.91-.07.55-7,2.73.21c1.43.11,2.14.96,2.05,2.04,0,.76-.55,1.41-1.29,1.55.56.19,1.02.66.96,1.88v.3c-.07.46-.07.93,0,1.4l-.9-.07c-.08-.5-.08-1.02,0-1.52v-.13c.08-.96-.17-1.45-1.43-1.55l-1.51-.12ZM371.93,320l1.52.12c1.08.09,1.57-.28,1.63-1.07.06-.79-.39-1.2-1.34-1.27l-1.63-.13-.18,2.35Z"/><path class="cls-25_under-constructions-1-75" d="M381.17,317.55l-.33,4.22c-.13,1.65.74,2.17,1.64,2.23,1.04.09,1.82-.34,1.93-1.93l.33-4.22.96.08-.35,4.1c-.17,2.27-1.48,2.83-2.97,2.71s-2.67-.96-2.5-3.07l.33-4.23.97.1Z"/><path class="cls-25_under-constructions-1-75" d="M395.16,323.68c-.39,1.26-1.64,2.05-2.95,1.86-2.09-.16-3.02-1.84-2.89-3.85.13-2.01,1.34-3.53,3.46-3.37,1.34-.02,2.47,1,2.59,2.33l-.96-.08c-.14-.86-.88-1.48-1.75-1.47-1.55-.13-2.28,1.23-2.39,2.64-.11,1.41.38,2.89,1.99,3,.84.11,1.64-.37,1.93-1.16l.97.11Z"/><path class="cls-25_under-constructions-1-75" d="M400.8,319.87l-2.25-.17.07-.8,5.45.42-.07.79-2.26-.17-.48,6.21-.96-.08.51-6.2Z"/><path class="cls-25_under-constructions-1-75" d="M408.54,319.67l-.54,7-.96-.08.54-6.99.96.07Z"/><path class="cls-25_under-constructions-1-75" d="M418.76,323.96c-.14,1.93-1.36,3.55-3.55,3.38-2.19-.17-3.09-1.83-2.89-3.85.2-2.02,1.45-3.51,3.57-3.35s3.03,1.71,2.87,3.82ZM413.25,323.54c-.12,1.51.55,2.89,2.05,3.01s2.38-1.16,2.49-2.65-.52-2.84-2.06-2.96c-1.54-.13-2.37,1.1-2.47,2.58v.02Z"/><path class="cls-25_under-constructions-1-75" d="M422.49,327.81l.55-6.99,1.22.1c.88,1.71,2.79,5.36,3.13,6.14h0c0-.9.09-2,.18-3.14l.2-2.73.89.07-.55,6.99-1.16-.09c-.81-1.59-2.79-5.51-3.16-6.31h0c0,.8-.11,1.98-.2,3.25l-.22,2.79-.89-.08Z"/><path class="cls-25_under-constructions-1-75" d="M433.11,326.65c.09.85.83,1.47,1.67,1.43,1.09.09,1.56-.39,1.61-1.06s-.26-1.13-1.63-1.56c-1.62-.54-2.15-1.15-2.07-2.13s.9-1.83,2.46-1.71c1.2-.07,2.24.85,2.31,2.05,0,0,0,.01,0,.02l-.96-.07c-.06-.74-.71-1.3-1.45-1.24-.86-.07-1.36.27-1.41.96s.32.96,1.52,1.34c1.93.64,2.25,1.43,2.18,2.34-.09,1.13-.96,1.93-2.7,1.82-1.31.08-2.44-.92-2.51-2.24,0,0,0-.01,0-.02l.97.06Z"/><polygon class="cls-2_under-constructions-1-75" points="240.72 294.15 360.09 303.21 241.55 322.96 153.47 316.38 240.72 294.15"/><polygon class="cls-26_under-constructions-1-75 targetColor" points="58.34 318.24 447.34 255.49 449.65 279.36 58.53 343.65 58.34 318.24" style="fill: rgb(255, 69, 26);"/><polygon class="cls-3_under-constructions-1-75" points="58.34 318.24 447.34 255.49 449.65 279.36 58.53 343.65 58.34 318.24"/><rect class="cls-26_under-constructions-1-75 targetColor" x="447.26" y="226.43" width="15.79" height="159.09" style="fill: rgb(255, 69, 26);"/><rect class="cls-4_under-constructions-1-75" x="44.23" y="226.43" width="15.79" height="159.09"/><rect class="cls-13_under-constructions-1-75" x="447.26" y="226.43" width="15.79" height="159.09"/><path class="cls-25_under-constructions-1-75" d="M91.46,321.57l.9-.14.55,3.41c.43-.63,1.93-2.65,2.82-3.95l1.15-.18-2.51,3.41,3.76,3.5-1.11.17-3.21-2.98-.76.96.41,2.61-.9.14-1.11-6.95Z"/><path class="cls-25_under-constructions-1-75" d="M105.28,323.14l-3.45.55.39,2.45,3.78-.61v.81l-4.56.72-1.1-6.96,4.51-.72.13.78-3.62.58.35,2.13,3.45-.56.13.83Z"/><path class="cls-25_under-constructions-1-75" d="M113.74,321.8l-3.44.55.39,2.45,3.78-.61v.81l-4.56.73-1.11-6.93,4.51-.72.13.79-3.62.58.34,2.12,3.45-.55.13.79Z"/><path class="cls-25_under-constructions-1-75" d="M117.29,317.44l2.63-.41c1.08-.32,2.21.31,2.53,1.39.03.09.05.18.06.27.2,1.13-.56,2.21-1.69,2.41-.1.02-.21.03-.31.03l-1.64.26.45,2.89-.96.14-1.07-6.97ZM118.7,320.59l1.6-.25c.96-.15,1.36-.69,1.22-1.49-.08-.69-.71-1.17-1.39-1.09-.07,0-.14.02-.21.04l-1.63.26.4,2.53Z"/><path class="cls-25_under-constructions-1-75" d="M135.17,318.09c.31,1.93-.49,3.77-2.68,4.13-2.03.33-3.43-1.07-3.74-3.06-.32-1.99.59-3.75,2.7-4.08,1.94-.32,3.4.95,3.73,3.01ZM129.71,318.98c.24,1.49,1.2,2.69,2.7,2.45s2.04-1.68,1.81-3.16-1.16-2.64-2.7-2.4-2.04,1.64-1.81,3.11Z"/><path class="cls-25_under-constructions-1-75" d="M139.46,313.89l.66,4.17c.27,1.64,1.23,1.93,2.12,1.8,1.04-.16,1.69-.76,1.44-2.37l-.67-4.17.96-.14.65,4.12c.37,2.25-.78,3.1-2.25,3.33s-2.81-.27-3.15-2.4l-.67-4.19.9-.15Z"/><path class="cls-25_under-constructions-1-75" d="M149.75,313.06l-2.23.36-.13-.79,5.4-.86.13.78-2.24.37.96,6.14-.96.14-.92-6.14Z"/><path class="cls-25_under-constructions-1-75" d="M210.15,302.6l.66,4.17c.26,1.64,1.22,1.93,2.11,1.8,1.04-.16,1.7-.76,1.44-2.37l-.66-4.17.96-.14.65,4.12c.37,2.25-.78,3.1-2.25,3.33s-2.81-.27-3.15-2.4l-.73-4.16.96-.18Z"/><path class="cls-25_under-constructions-1-75" d="M219.97,308.13l-1.11-6.93,1.21-.19c1.26,1.46,3.98,4.56,4.48,5.25h0c-.21-.88-.38-1.97-.55-3.1l-.44-2.7.88-.13,1.11,6.93-1.15.18c-1.16-1.36-4-4.71-4.55-5.41h0c.17.78.37,1.93.56,3.22l.44,2.76-.88.13Z"/><path class="cls-25_under-constructions-1-75" d="M228.8,299.62l2.46-.39c1.71-.38,3.41.71,3.78,2.42.03.15.06.31.07.47.44,1.76-.63,3.55-2.39,4-.11.03-.23.05-.34.07l-2.44.39-1.15-6.94ZM230.72,305.62l1.45-.23c1.64-.26,2.21-1.55,1.93-3.12-.05-1.31-1.16-2.33-2.47-2.28-.12,0-.24.02-.35.04l-1.45.23.9,5.36Z"/><path class="cls-25_under-constructions-1-75" d="M243.43,301.06l-3.44.55.39,2.45,3.78-.61v.81l-4.56.72-1.11-6.92,4.51-.72.13.78-3.62.58.35,2.13,3.44-.56.13.79Z"/><path class="cls-25_under-constructions-1-75" d="M248.49,300.45l.49,3.05-.9.14-1.11-6.93,2.7-.43c1.42-.23,2.3.42,2.47,1.5.16.76-.24,1.53-.96,1.82.6.06,1.16.41,1.34,1.61l.05.3c.04.47.15.92.32,1.36l-.9.14c-.2-.47-.32-.97-.36-1.47v-.14c-.16-.96-.51-1.37-1.75-1.16l-1.4.22ZM248.37,299.68l1.5-.24c1.07-.17,1.46-.64,1.34-1.42s-.66-1.08-1.6-.96l-1.61.25.37,2.38Z"/><path class="cls-25_under-constructions-1-75" d="M264.68,298.93c-.08,1.32-1.11,2.38-2.43,2.49-2.08.33-3.37-1.08-3.69-3.04-.32-1.96.47-3.74,2.57-4.08,1.3-.33,2.64.39,3.07,1.66l-.96.14c-.34-.8-1.21-1.24-2.05-1.03-1.53.24-1.93,1.73-1.7,3.13s1.03,2.7,2.64,2.45c.83-.1,1.49-.75,1.59-1.58l.96-.14Z"/><path class="cls-25_under-constructions-1-75" d="M274.34,295.84c.31,1.93-.49,3.77-2.67,4.13s-3.43-1.07-3.75-3.06.6-3.74,2.7-4.08c1.94-.32,3.4.95,3.73,3.01ZM268.88,296.73c.24,1.49,1.21,2.69,2.7,2.45s2.04-1.68,1.8-3.16-1.16-2.64-2.7-2.4-2.04,1.64-1.82,3.11h0Z"/><path class="cls-25_under-constructions-1-75" d="M278.87,298.71l-1.11-6.92,1.21-.2c1.25,1.47,3.97,4.56,4.47,5.25h0c-.21-.88-.38-1.93-.55-3.09l-.43-2.71.87-.13,1.11,6.93-1.13.14c-1.16-1.36-4-4.71-4.55-5.41h0c.17.78.37,1.93.57,3.21l.44,2.77-.9.17Z"/><path class="cls-25_under-constructions-1-75" d="M288.92,295.13c.3.77,1.13,1.18,1.93.96,1.08-.17,1.42-.75,1.32-1.41-.11-.65-.51-1.03-1.93-1.14-1.69-.14-2.35-.61-2.5-1.58s.46-1.99,2-2.24c1.16-.35,2.37.31,2.72,1.46,0,0,0,0,0,0l-.96.15c-.23-.71-.99-1.1-1.7-.88-.85.13-1.25.59-1.15,1.24s.53.85,1.79.96c2.05.16,2.52.87,2.67,1.77.17,1.12-.51,2.12-2.2,2.39-1.25.38-2.57-.33-2.95-1.58,0,0,0,0,0-.01l.97-.12Z"/><path class="cls-25_under-constructions-1-75" d="M297.75,289.4l-2.23.36-.13-.78,5.4-.87.13.78-2.24.37.96,6.14-.96.14-.92-6.14Z"/><path class="cls-25_under-constructions-1-75" d="M305.85,291.28l.49,3.04-.91.14-1.11-6.93,2.71-.43c1.42-.22,2.3.43,2.47,1.51.16.76-.24,1.53-.96,1.82.6.06,1.15.4,1.34,1.6l.05.3c.04.47.15.93.32,1.37l-.9.13c-.2-.47-.32-.97-.36-1.47v-.13c-.16-.96-.51-1.37-1.75-1.17l-1.4.23ZM305.73,290.5l1.5-.24c1.07-.17,1.46-.64,1.34-1.42-.13-.77-.66-1.08-1.6-.96l-1.62.26.38,2.36Z"/><path class="cls-25_under-constructions-1-75" d="M314.11,285.98l.66,4.17c.26,1.64,1.22,1.93,2.12,1.8s1.69-.76,1.44-2.37l-.67-4.17.96-.14.66,4.12c.36,2.25-.79,3.09-2.26,3.33s-2.8-.27-3.15-2.4l-.66-4.2.9-.14Z"/><path class="cls-25_under-constructions-1-75" d="M329.16,288.66c-.08,1.32-1.11,2.38-2.43,2.49-2.08.34-3.37-1.07-3.69-3.03-.32-1.96.47-3.75,2.57-4.09,1.3-.33,2.63.39,3.06,1.66l-.91.14c-.34-.8-1.21-1.24-2.05-1.03-1.53.25-1.93,1.74-1.7,3.13s1.03,2.71,2.64,2.45c.83-.1,1.48-.74,1.59-1.57l.92-.15Z"/><path class="cls-25_under-constructions-1-75" d="M333.75,283.64l-2.22.36-.13-.78,5.4-.87.13.79-2.24.36.96,6.14-.96.15-.92-6.15Z"/><path class="cls-25_under-constructions-1-75" d="M341.23,281.61l1.11,6.93-.91.14-1.12-6.93.92-.14Z"/><path class="cls-25_under-constructions-1-75" d="M352.16,283.41c.3,1.93-.49,3.77-2.68,4.12-2.19.35-3.43-1.06-3.74-3.05s.59-3.75,2.69-4.09,3.41.96,3.73,3.02ZM346.71,284.29c.24,1.49,1.2,2.69,2.7,2.45s2.04-1.68,1.81-3.16c-.23-1.47-1.17-2.64-2.7-2.4s-2.05,1.64-1.81,3.11Z"/><path class="cls-25_under-constructions-1-75" d="M356.69,286.28l-1.11-6.93,1.21-.19c1.25,1.46,3.97,4.56,4.48,5.25h0c-.21-.88-.38-1.93-.56-3.1l-.43-2.7.87-.13,1.11,6.93-1.15.18c-1.16-1.36-3.99-4.71-4.54-5.41h0c.18.78.37,1.93.57,3.21l.44,2.77-.89.13Z"/><path class="cls-25_under-constructions-1-75" d="M366.74,282.69c.3.79,1.16,1.21,1.97.96,1.07-.16,1.42-.74,1.31-1.4s-.51-1.04-1.93-1.15c-1.69-.13-2.36-.6-2.51-1.58s.46-1.99,2-2.23c1.15-.36,2.37.29,2.72,1.43,0,.01,0,.03.01.04l-.96.14c-.23-.71-.99-1.09-1.69-.87-.85.13-1.26.59-1.16,1.24s.53.85,1.8.96c2.05.15,2.51.87,2.66,1.76.18,1.12-.5,2.13-2.19,2.4-1.26.38-2.58-.33-2.96-1.59,0,0,0,0,0,0l.93-.13Z"/><circle class="cls-9_under-constructions-1-75" cx="181.72" cy="310.34" r="3.09"/><circle class="cls-7_under-constructions-1-75" cx="402.61" cy="273.23" r="3.09"/><circle class="cls-6_under-constructions-1-75" cx="71.56" cy="329.56" r="3.09"/></g><g id="cone_under-constructions-1-75"><polygon class="cls-26_under-constructions-1-75 targetColor" points="474.67 382.15 440.2 382.15 444.05 359.82 446.61 344.8 451.57 315.92 461.08 315.83 467.01 344.8 470.08 359.82 474.67 382.15" style="fill: rgb(255, 69, 26);"/><polygon class="cls-12_under-constructions-1-75" points="474.67 382.15 440.2 382.15 444.05 359.82 446.61 344.8 451.57 315.92 461.08 315.83 467.01 344.8 470.08 359.82 474.67 382.15"/><path class="cls-26_under-constructions-1-75 targetColor" d="M432.71,380.99h48.51c2.13,0,3.85,1.72,3.85,3.85h0c0,2.13-1.72,3.85-3.85,3.85h-48.51c-2.13,0-3.85-1.72-3.85-3.85h0c0-2.13,1.72-3.85,3.85-3.85Z" style="fill: rgb(255, 69, 26);"/><path class="cls-8_under-constructions-1-75" d="M432.71,380.99h48.51c2.13,0,3.85,1.72,3.85,3.85h0c0,2.13-1.72,3.85-3.85,3.85h-48.51c-2.13,0-3.85-1.72-3.85-3.85h0c0-2.13,1.72-3.85,3.85-3.85Z"/><polygon class="cls-15_under-constructions-1-75" points="470.08 359.82 444.05 359.82 446.61 344.8 467.01 344.8 470.08 359.82"/><polygon class="cls-26_under-constructions-1-75 targetColor" points="64.73 382.15 30.27 382.15 34.11 359.82 36.67 344.8 41.64 315.92 51.15 315.83 57.08 344.8 60.15 359.82 64.73 382.15" style="fill: rgb(255, 69, 26);"/><polygon class="cls-11_under-constructions-1-75" points="64.73 382.15 30.27 382.15 34.11 359.82 36.67 344.8 41.64 315.92 51.15 315.83 57.08 344.8 60.15 359.82 64.73 382.15"/><path class="cls-26_under-constructions-1-75 targetColor" d="M22.77,380.99h48.51c2.13,0,3.85,1.72,3.85,3.85h0c0,2.13-1.72,3.85-3.85,3.85H22.77c-2.13,0-3.85-1.72-3.85-3.85h0c0-2.13,1.72-3.85,3.85-3.85Z" style="fill: rgb(255, 69, 26);"/><path class="cls-14_under-constructions-1-75" d="M22.77,380.99h48.51c2.13,0,3.85,1.72,3.85,3.85h0c0,2.13-1.72,3.85-3.85,3.85H22.77c-2.13,0-3.85-1.72-3.85-3.85h0c0-2.13,1.72-3.85,3.85-3.85Z"/><polygon class="cls-10_under-constructions-1-75" points="60.15 359.82 34.11 359.82 36.67 344.8 57.08 344.8 60.15 359.82"/></g></svg>