<svg width="217" height="40" viewBox="0 0 217 40" fill="none" xmlns="http://www.w3.org/2000/svg">
<g clip-path="url(#clip0_117_41)">
<path fill-rule="evenodd" clip-rule="evenodd" d="M63.4462 38.476V6.44224C63.4462 6.03848 63.7741 5.71114 64.1787 5.71114H81.9859C82.3904 5.71114 82.7187 6.03848 82.7187 6.44224V9.00965C82.7187 9.41345 82.3904 9.74076 81.9859 9.74076H67.5884V20.2894H80.4219C80.8267 20.2894 81.1547 20.6168 81.1547 21.0206V23.4824C81.1547 23.8861 80.8267 24.2134 80.4219 24.2134H67.5884V35.1792H81.9879C82.3924 35.1792 82.7204 35.5064 82.7204 35.9104V38.4777C82.7204 38.8813 82.3924 39.2089 81.9876 39.2086L64.1787 39.2069C63.7741 39.2069 63.4462 38.8797 63.4462 38.476Z" fill="#0B1228"/>
<path d="M214.83 8.93332L213.847 5.99256V8.93332H213.303V5.44783H214.214L215.109 8.28003L216.02 5.44783H216.901V8.93332H216.357V5.99256L215.374 8.93332H214.83Z" fill="#0B1228"/>
<path d="M211.229 5.884H210.138V5.44783H212.867V5.884H211.775V8.9314H211.229V5.884Z" fill="#0B1228"/>
<path fill-rule="evenodd" clip-rule="evenodd" d="M200.367 35.5944H200.373C202.403 35.5944 203.883 35.1131 204.852 34.24C205.815 33.3736 206.337 32.0642 206.337 30.2682V30.2637C206.35 29.0721 205.94 27.9143 205.179 26.9959C204.418 26.0775 203.356 25.4579 202.18 25.247L202.164 25.2441L196.621 23.7842C194.599 23.2888 192.815 22.1026 191.578 20.4315C190.343 18.7625 189.731 16.7151 189.849 14.6439C189.852 11.8959 190.828 9.57782 192.558 7.94744C194.288 6.31666 196.74 5.40347 199.642 5.40347C202.885 5.40347 205.272 6.49822 206.94 8.18146C208.599 9.85646 209.519 12.0853 209.893 14.3179C209.968 14.7677 209.615 15.1599 209.174 15.1599H206.619C206.238 15.1599 205.937 14.873 205.886 14.5194C205.681 13.1184 204.982 11.8325 203.909 10.897C202.765 9.89984 201.283 9.3761 199.765 9.43283L199.757 9.43309H199.749C197.947 9.43309 196.513 9.95627 195.533 10.8504C194.557 11.7411 193.994 13.0342 193.994 14.6555V14.6649L193.993 14.6743C193.937 15.8696 194.304 17.0466 195.029 17.9996C195.755 18.9526 196.792 19.621 197.961 19.8881L197.969 19.89L203.712 21.4532C205.72 21.9487 207.497 23.116 208.747 24.7605C209.997 26.4047 210.645 28.4266 210.582 30.4892C210.58 33.3408 209.606 35.6902 207.831 37.325C206.059 38.9557 203.53 39.8374 200.484 39.839C199.05 39.8985 197.619 39.6641 196.279 39.1501C194.936 38.6354 193.713 37.8509 192.687 36.8453C191.66 35.84 190.852 34.6347 190.311 33.3048C189.809 32.0719 189.548 30.7559 189.54 29.4272C189.538 29.0368 189.845 28.728 190.22 28.7031L192.693 28.539C193.122 28.5106 193.464 28.8484 193.483 29.2505C193.52 30.0305 193.694 30.7988 193.998 31.5202C194.345 32.3443 194.856 33.0902 195.498 33.7134C196.14 34.3365 196.902 34.8241 197.738 35.1474C198.573 35.4707 199.465 35.6228 200.361 35.5947L200.367 35.5944Z" fill="#0B1228"/>
<path fill-rule="evenodd" clip-rule="evenodd" d="M173.35 25.3786V38.476C173.35 38.8797 173.678 39.2069 174.082 39.2073L176.766 39.2086C177.171 39.2089 177.499 38.8813 177.499 38.4777V25.3777L188.113 6.80442C188.392 6.31705 188.039 5.71117 187.477 5.71117H184.59C184.327 5.71117 184.084 5.85216 183.953 6.08046L175.423 21.026L166.892 6.08046C166.762 5.85216 166.519 5.71117 166.255 5.71117H163.264C162.7 5.71117 162.347 6.31979 162.629 6.8072L173.35 25.3786Z" fill="#0B1228"/>
<path fill-rule="evenodd" clip-rule="evenodd" d="M151.072 35.5944H151.079C153.109 35.5944 154.588 35.1131 155.558 34.24C156.52 33.3736 157.043 32.0642 157.043 30.2682V30.2637C157.056 29.0721 156.646 27.9143 155.885 26.9959C155.124 26.0775 154.061 25.4579 152.886 25.247L152.87 25.2441L147.326 23.7842C145.305 23.2888 143.52 22.1026 142.283 20.4315C141.048 18.7625 140.437 16.7151 140.555 14.6439C140.558 11.8959 141.534 9.57782 143.263 7.94744C144.993 6.31666 147.446 5.40347 150.347 5.40347C153.59 5.40347 155.977 6.49822 157.645 8.18146C159.305 9.85646 160.224 12.0853 160.598 14.3179C160.673 14.7677 160.321 15.1599 159.879 15.1599H157.325C156.943 15.1599 156.643 14.8729 156.591 14.5194C156.386 13.1184 155.687 11.8325 154.614 10.897C153.47 9.89984 151.988 9.3761 150.47 9.43283L150.462 9.43309H150.455C148.653 9.43309 147.218 9.95627 146.238 10.8504C145.262 11.7411 144.699 13.0341 144.699 14.6555V14.6649L144.699 14.6743C144.643 15.8696 145.009 17.0466 145.735 17.9996C146.46 18.9526 147.498 19.621 148.667 19.8881L148.674 19.89L154.417 21.4532C156.425 21.9487 158.202 23.116 159.453 24.7605C160.703 26.4047 161.35 28.4266 161.287 30.4892C161.286 33.3408 160.312 35.6902 158.536 37.325C156.764 38.9554 154.236 39.8374 151.19 39.839C149.756 39.8995 148.324 39.6661 146.984 39.1531C145.64 38.6393 144.418 37.8555 143.39 36.8509C142.363 35.8459 141.554 34.6417 141.012 33.3121C140.51 32.0791 140.248 30.7631 140.238 29.4343C140.236 29.0443 140.542 28.7355 140.916 28.7098L143.397 28.5399C143.826 28.5105 144.169 28.8486 144.188 29.2513C144.225 30.031 144.399 30.7991 144.703 31.5202C145.051 32.3443 145.561 33.0902 146.203 33.7134C146.846 34.3365 147.608 34.8241 148.443 35.1474C149.278 35.4707 150.171 35.6228 151.066 35.5947L151.072 35.5944Z" fill="#0B1228"/>
<path fill-rule="evenodd" clip-rule="evenodd" d="M117.605 38.476V6.44227C117.605 6.0385 117.933 5.71117 118.338 5.71117H136.145C136.55 5.71117 136.878 6.0385 136.878 6.44227V9.00971C136.878 9.41348 136.55 9.74079 136.145 9.74079H121.747V20.2895H134.581C134.986 20.2895 135.314 20.6168 135.314 21.0206V23.4824C135.314 23.8862 134.986 24.2135 134.581 24.2135H121.747V35.1792H136.147C136.551 35.1792 136.879 35.5064 136.879 35.9104V38.4777C136.879 38.8816 136.551 39.2089 136.146 39.2089L118.338 39.2069C117.933 39.2069 117.605 38.8797 117.605 38.476Z" fill="#0B1228"/>
<path fill-rule="evenodd" clip-rule="evenodd" d="M111.729 6.44227V38.476C111.729 38.8797 111.401 39.2069 110.997 39.2073L108.279 39.2086C108.022 39.2089 107.784 39.075 107.652 38.8562L92.3194 13.5868V38.476C92.3194 38.8797 91.9911 39.2069 91.5866 39.2069H88.9097C88.5049 39.2069 88.1769 38.8797 88.1769 38.476V6.44227C88.1769 6.0385 88.5049 5.71117 88.9097 5.71117H91.731C91.9875 5.71117 92.2253 5.84482 92.3578 6.06363L107.69 31.3332V6.44227C107.69 6.0385 108.018 5.71117 108.423 5.71117H110.996C111.401 5.71117 111.729 6.0385 111.729 6.44227Z" fill="#0B1228"/>
<path fill-rule="evenodd" clip-rule="evenodd" d="M46.6364 9.32327H46.6278C44.8262 9.32327 42.9743 9.87263 41.5772 11.1567C40.1874 12.4339 39.2021 14.4794 39.2021 17.5648V27.3541C39.2021 30.4396 40.1874 32.4851 41.5772 33.7623C42.9743 35.0463 44.8262 35.5957 46.6278 35.5957C48.4294 35.5957 50.2811 35.0463 51.6785 33.7623C53.0683 32.4851 54.0532 30.4396 54.0532 27.3541V25.1508H46.9591C46.5543 25.1508 46.2263 24.8234 46.2263 24.4197V21.8559C46.2263 21.4521 46.5543 21.1248 46.9591 21.1248H57.3572C57.7618 21.1248 58.0897 21.4521 58.0897 21.8559V27.3523C58.0897 30.9752 56.968 34.0459 54.9573 36.2152C52.944 38.3874 50.0684 39.6235 46.6278 39.6235C43.239 39.6235 40.3643 38.3861 38.3388 36.2155C36.3155 34.0473 35.1656 30.9769 35.1656 27.3523V17.5648C35.1656 13.942 36.287 10.8711 38.2987 8.70208C40.3116 6.53154 43.1873 5.2962 46.6302 5.29547C49.4873 5.1995 52.2702 6.2163 54.3895 8.13097C56.42 9.96512 57.6889 12.4853 57.9569 15.1964C58 15.6309 57.6524 15.9879 57.2327 15.9879H54.6502C54.2702 15.9879 53.9677 15.7026 53.917 15.3472C53.6785 13.6728 52.841 12.1369 51.5542 11.0264C50.1956 9.85418 48.4394 9.24473 46.6454 9.32291L46.6364 9.32327Z" fill="#0B1228"/>
<path d="M17.5869 27.759H13.5192C11.8638 27.759 10.2762 28.4012 9.10565 29.5444C7.93511 30.6875 7.27748 32.238 7.27748 33.8545C7.27748 35.4714 7.93511 37.0218 9.10565 38.165C10.2762 39.3081 11.8638 39.9504 13.5192 39.9504H17.5869C19.2423 39.9504 20.8299 39.3081 22.0005 38.165C23.1711 37.0218 23.8287 35.4714 23.8287 33.8545C23.8287 32.238 23.1711 30.6875 22.0005 29.5444C20.8299 28.4012 19.2423 27.759 17.5869 27.759Z" fill="#FF451A"/>
<path d="M17.1909 12.0039H6.84534C5.06558 12.0039 3.3587 12.6955 2.10018 13.9266C0.841688 15.1577 0.13467 16.8274 0.13467 18.5685C0.13467 20.3095 0.841688 21.9793 2.10018 23.2104C3.3587 24.4415 5.06558 25.1331 6.84534 25.1331H17.1909C18.0722 25.1331 18.9448 24.9633 19.759 24.6334C20.5732 24.3035 21.3129 23.82 21.9361 23.2104C22.5592 22.6008 23.0535 21.8771 23.3908 21.0807C23.728 20.2842 23.9016 19.4306 23.9016 18.5685C23.9016 17.7064 23.728 16.8528 23.3908 16.0563C23.0535 15.2599 22.5592 14.5362 21.9361 13.9266C21.3129 13.317 20.5732 12.8335 19.759 12.5036C18.9448 12.1736 18.0722 12.0039 17.1909 12.0039Z" fill="#FF451A"/>
<path d="M14.4203 4.68902C14.4203 2.09934 16.5242 0 19.1195 0C21.7148 0 23.8187 2.09934 23.8187 4.68902C23.8187 7.27868 21.7148 9.37802 19.1195 9.37802C16.5242 9.37802 14.4203 7.27868 14.4203 4.68902Z" fill="#FF451A"/>
</g>
<defs>
<clipPath id="clip0_117_41">
<rect width="217" height="40" fill="white"/>
</clipPath>
</defs>
</svg>
