<svg xmlns="http://www.w3.org/2000/svg" width="49.902" height="34" data-name="Capa 1" viewBox="0 0 49.902 34"><path fill="none" d="M27.865 15.339a.62.62 0 0 0-.414-.146h-.614v1.104h.624a.549.549 0 0 0 .575-.564.5.5 0 0 0-.17-.395ZM12.017 15.339a.62.62 0 0 0-.414-.146h-.614v1.104h.624a.549.549 0 0 0 .575-.564.5.5 0 0 0-.17-.395ZM21.981 16.306a.43.43 0 0 0-.429-.258.45.45 0 0 0-.263.075.536.536 0 0 0-.224.445h.971a.6.6 0 0 0-.054-.262ZM32.299 16.117a.5.5 0 0 0-.268-.069.45.45 0 0 0-.263.075.536.536 0 0 0-.224.445h.971q0-.143-.054-.262a.35.35 0 0 0-.161-.189ZM39.72 17.443a.4.4 0 0 0 .297.108.4.4 0 0 0 .285-.104.6.6 0 0 0 .156-.273 1.4 1.4 0 0 0 .048-.369 1.4 1.4 0 0 0-.044-.357.56.56 0 0 0-.152-.271.4.4 0 0 0-.294-.104.4.4 0 0 0-.286.098.56.56 0 0 0-.16.265 1.3 1.3 0 0 0-.051.369q0 .186.046.358a.6.6 0 0 0 .154.28Z"/><path d="M12.195 14.803a1.6 1.6 0 0 0-.651-.125H10.32v3.327h.676v-1.187h.635q.359 0 .625-.124t.413-.359c.147-.235.147-.345.147-.566q0-.352-.167-.596a1.03 1.03 0 0 0-.454-.369Zm-.168 1.332a.56.56 0 0 1-.414.162h-.624v-1.104h.614q.244 0 .414.146t.17.395a.55.55 0 0 1-.161.402ZM13.883 16.189v-.564h-.646v2.379h.672v-1.302a.6.6 0 0 1 .039-.216.4.4 0 0 1 .127-.163.54.54 0 0 1 .228-.094q.14-.027.338-.011l.052.005a.1.1 0 0 1 .049.012v-.64a.1.1 0 0 0-.043-.01l-.061-.003a.73.73 0 0 0-.592.291 1 1 0 0 0-.162.319ZM15.14 15.625h.642v2.379h-.642zM15.133 14.679h.653v.605h-.653zM18.897 16.127q.096 0 .183.038c.087.038.105.067.143.124a.4.4 0 0 1 .056.229v1.486h.672v-1.569q0-.241-.07-.406a.71.71 0 0 0-.437-.406.9.9 0 0 0-.27-.044.8.8 0 0 0-.418.109.95.95 0 0 0-.303.273.65.65 0 0 0-.181-.211.9.9 0 0 0-.238-.128.8.8 0 0 0-.249-.044.87.87 0 0 0-.752.382v-.336h-.658v2.379h.672V16.48q0-.12.062-.199a.37.37 0 0 1 .154-.117.44.44 0 0 1 .36 0 .36.36 0 0 1 .144.112.3.3 0 0 1 .058.182v1.546h.67v-1.523q0-.127.064-.205a.4.4 0 0 1 .156-.114.5.5 0 0 1 .182-.036ZM20.966 17.902q.268.148.622.148.248 0 .479-.094c.231-.094.284-.154.391-.274a.83.83 0 0 0 .202-.433h-.605a.4.4 0 0 1-.182.242.6.6 0 0 1-.301.074q-.16 0-.275-.072c-.115-.072-.134-.117-.174-.207a.8.8 0 0 1-.06-.316h1.599v-.182q0-.357-.127-.629c-.127-.272-.209-.324-.373-.426a1.13 1.13 0 0 0-.61-.153q-.366 0-.624.167-.258.166-.395.453c-.137.287-.137.405-.137.643q0 .368.15.64t.418.42Zm.154-1.584a.5.5 0 0 1 .168-.194.46.46 0 0 1 .263-.075q.161 0 .268.069a.43.43 0 0 1 .161.189.6.6 0 0 1 .054.262h-.971a.54.54 0 0 1 .056-.251ZM23.82 16.702a.6.6 0 0 1 .039-.216.4.4 0 0 1 .127-.163q.087-.066.228-.094c.141-.028.206-.022.338-.011l.052.005a.1.1 0 0 1 .049.012v-.64a.1.1 0 0 0-.043-.01l-.061-.003a.7.7 0 0 0-.338.077.75.75 0 0 0-.254.214 1 1 0 0 0-.162.319v-.564h-.647v2.379h.672v-1.302ZM28.663 15.768q0-.352-.167-.596a1.03 1.03 0 0 0-.454-.369 1.6 1.6 0 0 0-.651-.125h-1.224v3.327h.676v-1.187h.635q.359 0 .625-.124a.95.95 0 0 0 .413-.359q.147-.234.147-.566Zm-.789.367a.56.56 0 0 1-.414.162h-.624v-1.104h.614q.244 0 .414.146t.17.395a.55.55 0 0 1-.161.402ZM29.756 16.702a.6.6 0 0 1 .039-.216.4.4 0 0 1 .127-.163q.087-.066.228-.094c.141-.028.206-.022.338-.011l.052.005a.1.1 0 0 1 .049.012v-.64a.1.1 0 0 0-.043-.01l-.061-.003a.7.7 0 0 0-.338.077.75.75 0 0 0-.254.214 1 1 0 0 0-.162.319v-.564h-.647v2.379h.672v-1.302ZM32.643 15.732a1.13 1.13 0 0 0-.61-.153q-.366 0-.624.167-.257.167-.395.453c-.138.286-.137.405-.137.643q0 .368.15.64t.418.42c.268.148.386.148.622.148q.248 0 .479-.094c.231-.094.284-.154.391-.274a.84.84 0 0 0 .203-.433h-.605a.4.4 0 0 1-.182.242.6.6 0 0 1-.301.074q-.16 0-.275-.072c-.115-.072-.134-.117-.174-.207a.8.8 0 0 1-.06-.316h1.599v-.182a1.5 1.5 0 0 0-.126-.629.97.97 0 0 0-.373-.426Zm-1.1.836a.54.54 0 0 1 .056-.251.5.5 0 0 1 .168-.194.46.46 0 0 1 .263-.075q.161 0 .268.069t.161.189c.054.12.054.167.054.262zM34.3 16.481q0-.12.062-.199a.37.37 0 0 1 .154-.117.44.44 0 0 1 .36 0 .36.36 0 0 1 .144.112q.057.074.057.182v1.546h.669v-1.523q0-.127.064-.205a.4.4 0 0 1 .156-.114.458.458 0 0 1 .365.002.33.33 0 0 1 .143.124.4.4 0 0 1 .056.229v1.486h.672v-1.569q0-.241-.07-.406a.71.71 0 0 0-.437-.406.9.9 0 0 0-.27-.044q-.23 0-.418.109c-.188.109-.226.164-.303.273a.65.65 0 0 0-.181-.211.9.9 0 0 0-.238-.128.8.8 0 0 0-.249-.044.87.87 0 0 0-.752.382v-.336h-.658v2.379h.672V16.48ZM37.756 15.625h.642v2.379h-.642zM37.749 14.679h.653v.605h-.653zM39.406 17.901q.259.15.609.15.363 0 .62-.156.256-.156.393-.431c.137-.275.137-.395.137-.634q0-.382-.14-.663a1.03 1.03 0 0 0-.398-.434q-.258-.153-.61-.153c-.352 0-.438.052-.611.156q-.258.156-.4.437-.141.28-.141.656c0 .376.047.466.141.649q.142.274.4.423m.165-1.464a.6.6 0 0 1 .16-.265.41.41 0 0 1 .286-.098q.186 0 .294.104t.152.271.044.357q0 .2-.048.369a.6.6 0 0 1-.156.273.4.4 0 0 1-.285.104.4.4 0 0 1-.297-.108.6.6 0 0 1-.154-.28 1.4 1.4 0 0 1-.046-.358q0-.203.051-.369Z"/><path d="M48.43 19.444q-.306.092-.592.235a4.213 4.213 0 0 0-1.824 1.759l.032-.102.157-.558.135-.564q.035-.14.06-.283l.055-.284.04-.23c.421.066.835.047 1.226-.063a2.74 2.74 0 0 0 1.12-.622c.665-.591 1.085-1.551 1.06-2.621-.894.026-1.68.463-2.286 1.058a4.16 4.16 0 0 0-1.034 1.673q.1-.744.134-1.495.011-.314.012-.627a2.9 2.9 0 0 0 1.208-.264 2.8 2.8 0 0 0 1.003-.797q.205-.261.36-.575.144-.313.232-.67a3.7 3.7 0 0 0 .022-1.519 3 3 0 0 0-1.183.52 3.988 3.988 0 0 0-.898.903 4.2 4.2 0 0 0-.752 1.859 16 16 0 0 0-.207-2.154 2.9 2.9 0 0 0 1.155-.461c.348-.24.648-.565.857-.953.217-.39.343-.842.377-1.329a4 4 0 0 0-.034-.745 4 4 0 0 0-.199-.757 3.1 3.1 0 0 0-1.08.711 4 4 0 0 0-.734 1.041 4.2 4.2 0 0 0-.429 2.01 16 16 0 0 0-.172-.784 16 16 0 0 0-.401-1.354c.41-.143.772-.362 1.07-.651a2.7 2.7 0 0 0 .404-.496 3 3 0 0 0 .282-.588c.076-.211.122-.431.147-.661q.02-.173.021-.352a3 3 0 0 0-.021-.358 3.3 3.3 0 0 0-.158-.729 3.5 3.5 0 0 0-.322-.713 3 3 0 0 0-.942.879c-.25.351-.431.743-.551 1.149a4.2 4.2 0 0 0-.078 2.108q-.081-.217-.168-.432a16 16 0 0 0-.773-1.629c.384-.21.708-.488.957-.827.248-.341.419-.743.494-1.182a3.2 3.2 0 0 0 .035-.676 3.4 3.4 0 0 0-.119-.699 3.7 3.7 0 0 0-.711-1.341 3 3 0 0 0-.786 1.025 4 4 0 0 0-.225.597q-.09.31-.127.627a4.2 4.2 0 0 0 .305 2.164 16.4 16.4 0 0 0-1.307-1.944 2.9 2.9 0 0 0 .811-.977c.19-.378.295-.807.292-1.247a3.2 3.2 0 0 0-.307-1.344 3.6 3.6 0 0 0-.923-1.204 3.06 3.06 0 0 0-.606 1.14 3.7 3.7 0 0 0-.145.945 4.197 4.197 0 0 0 .715 2.484 16 16 0 0 0-1.674-1.774c.602-.652.875-1.508.727-2.385a3 3 0 0 0-.188-.65 3 3 0 0 0-.34-.623 3 3 0 0 0-.224-.293 4 4 0 0 0-.263-.27 4 4 0 0 0-.294-.252 5 5 0 0 0-.329-.221 3 3 0 0 0-.408 1.224c-.048.422-.025.861.068 1.271.168.78.538 1.497 1.117 2.078a16 16 0 0 0-1.449-1.153q.747.536 1.43 1.151a2.3 2.3 0 0 0-.382-.254 2.575 2.575 0 0 0-1.789-.264c-.396.09-.762.258-1.09.513-.328.253-.61.578-.841.96.608.367 1.329.454 2.092.32a4 4 0 0 0 1.134-.38 3.6 3.6 0 0 0 1.018-.763 16 16 0 0 1 1.634 1.75 3 3 0 0 0-.258-.237 3 3 0 0 0-.537-.327 2.593 2.593 0 0 0-1.186-.225q-.15.006-.297.029-.15.025-.296.067a2.8 2.8 0 0 0-.565.228 3.4 3.4 0 0 0-.988.806c.54.463 1.237.668 2.009.664a4.2 4.2 0 0 0 1.182-.188 3.7 3.7 0 0 0 1.125-.58q.707.917 1.278 1.923a2.471 2.471 0 0 0-.644-.616 2.4 2.4 0 0 0-.545-.279c-.19-.07-.383-.12-.585-.141a2.8 2.8 0 0 0-.601-.004 3 3 0 0 0-.597.132 3.5 3.5 0 0 0-1.107.631c.454.547 1.11.862 1.873.985.378.061.784.069 1.198.01a3.6 3.6 0 0 0 1.195-.38 16 16 0 0 1 .922 2.053 2.6 2.6 0 0 0-.994-1.03 2.8 2.8 0 0 0-.554-.237 2.8 2.8 0 0 0-1.201-.072c-.41.066-.814.216-1.199.441.359.613.949 1.033 1.681 1.281a4.176 4.176 0 0 0 1.178.21c.404.012.824-.038 1.237-.174q.225.667.391 1.351.092.384.164.773-.025-.073-.053-.142a3 3 0 0 0-.314-.545 2.6 2.6 0 0 0-.932-.768 2.7 2.7 0 0 0-1.172-.271 3.5 3.5 0 0 0-1.251.233c.252.663.762 1.176 1.44 1.543.344.18.718.323 1.127.404.394.078.815.099 1.24.037q.078.501.126 1.007.052.562.066 1.128l-.019-.098a2.6 2.6 0 0 0-.219-.59 2.4 2.4 0 0 0-.344-.507 3 3 0 0 0-.208-.217 2.721 2.721 0 0 0-1.348-.653 3.4 3.4 0 0 0-1.274.02c.068.35.206.67.405.965q.145.221.342.422.187.201.417.379.232.178.491.326.261.149.554.26c.377.142.779.232 1.207.241q-.003.312-.015.623-.036.731-.139 1.456l-.001-.042a2.9 2.9 0 0 0-.169-.764l-.062-.142a3 3 0 0 0-.145-.269 2.4 2.4 0 0 0-.372-.474c-.566-.573-1.391-.859-2.28-.833.003.179.033.354.068.524q.03.127.074.253.047.124.099.246.107.243.268.473.152.23.349.442c.269.283.572.539.934.749.342.199.727.354 1.142.435l-.042.229-.056.282a4 4 0 0 1-.062.281l-.137.558-.16.552-.025.079a3 3 0 0 0-.016-.625 2.62 2.62 0 0 0-1.349-1.92 3.5 3.5 0 0 0-1.211-.395 2 2 0 0 0-.023.264 6 6 0 0 0 .005.262c.008.173.043.347.089.518q.064.256.184.509c.079.168.164.332.272.493.216.323.476.627.796.894.302.252.652.468 1.045.616q-.338.941-.788 1.835.069-.29.08-.578a2.6 2.6 0 0 0-.059-.61 2.3 2.3 0 0 0-.197-.57 2.7 2.7 0 0 0-.318-.507 3 3 0 0 0-.435-.432 3.5 3.5 0 0 0-1.128-.592 2.4 2.4 0 0 0-.105.515 2.4 2.4 0 0 0 0 .526q.02.263.096.532c.05.179.107.355.186.532.159.355.364.698.635 1.015.254.297.563.568.922.78a16 16 0 0 1-1.067 1.651 2.568 2.568 0 0 0 .207-1.138 3 3 0 0 0-.029-.299 2.688 2.688 0 0 0-.655-1.347 3.5 3.5 0 0 0-1.013-.772c-.325.63-.357 1.359-.178 2.107q.035.141.083.282.045.139.101.278.112.278.273.547c.201.334.456.648.771.915a17 17 0 0 1-1.301 1.435c.094-.15.168-.31.231-.469.076-.19.119-.395.145-.595q.04-.3.002-.602a2.7 2.7 0 0 0-.403-1.135 3.5 3.5 0 0 0-.871-.931 2.6 2.6 0 0 0-.443.95 3 3 0 0 0-.083.537 3.3 3.3 0 0 0 0 .564q.025.291.088.582.065.293.18.585c.143.361.338.708.604 1.023q-.706.626-1.479 1.165a2.5 2.5 0 0 0 .27-.384 2.3 2.3 0 0 0 .241-.563 2.4 2.4 0 0 0 .102-.593c.044-.805-.299-1.608-.915-2.248-.13.123-.239.261-.341.402a3 3 0 0 0-.423.977 3.4 3.4 0 0 0-.092.557c-.033.385-.016.786.071 1.195.08.377.214.748.422 1.101q-.244.155-.495.3-.554.32-1.133.594a2.849 2.849 0 0 0 .492-.563 2.8 2.8 0 0 0 .347-.836 2.75 2.75 0 0 0-.011-1.204 3.5 3.5 0 0 0-.521-1.165c-.588.399-.966 1.019-1.163 1.767a4 4 0 0 0-.128 1.19c.015.379.085.766.228 1.145q-1.149.475-2.355.773l.056.228a17 17 0 0 0 2.383-.799c.169.37.403.696.693.956.314.28.699.491 1.128.609q.32.084.67.101c.234.014.467-.01.708-.05.241-.038.48-.111.716-.207a4 4 0 0 0 .352-.162q.171-.094.337-.207a3 3 0 0 0-.941-.881 3.9 3.9 0 0 0-1.183-.47 4.2 4.2 0 0 0-1.726-.028q.59-.283 1.154-.613.252-.149.499-.307c.229.339.516.624.846.832.356.223.772.37 1.213.413q.33.03.678-.01a3.4 3.4 0 0 0 1.36-.489c.22-.13.424-.294.618-.478-.62-.644-1.472-.934-2.319-.981a4.2 4.2 0 0 0-1.747.275 17 17 0 0 0 1.512-1.205c.284.3.616.536.978.687q.293.123.612.176.322.055.652.031.331-.024.668-.12.33-.103.652-.278a3.7 3.7 0 0 0 1.139-1.003 3 3 0 0 0-1.179-.527 4 4 0 0 0-1.272-.058 4.2 4.2 0 0 0-1.694.571q.205-.204.405-.415.47-.502.897-1.039a2.9 2.9 0 0 0 1.085.521 2.8 2.8 0 0 0 .959.054q.161-.021.322-.06c.214-.052.431-.128.639-.229q.309-.157.598-.382c.191-.151.364-.33.529-.525q.124-.146.228-.312.107-.165.2-.342a3.05 3.05 0 0 0-1.251-.324q-.32-.014-.637.027a4.199 4.199 0 0 0-2.24 1.005q.59-.81 1.075-1.687c.371.196.761.311 1.161.336.421.027.86-.042 1.263-.218.202-.088.406-.197.592-.333q.279-.206.527-.476.24-.274.434-.607c.129-.221.227-.464.313-.718a3 3 0 0 0-1.287-.11q-.318.04-.623.133a4.204 4.204 0 0 0-2.07 1.4q.456-.916.795-1.881c.401.134.81.183 1.212.141.421-.044.84-.185 1.209-.427a3 3 0 0 0 .528-.428 3.7 3.7 0 0 0 .44-.558q.191-.31.326-.67.069-.179.113-.37.046-.19.076-.389a3 3 0 0 0-1.287.106Z"/><path d="M38.351 1.391c-.778-.405-1.729-.451-2.529-.063.39.806.972 1.386 1.661 1.744.69.355 1.501.494 2.382.347-.145-.879-.733-1.628-1.514-2.028M13.436 30.296a4 4 0 0 0-.128-1.19c-.197-.748-.575-1.368-1.163-1.767-.25.369-.428.761-.521 1.165a2.8 2.8 0 0 0-.011 1.204c.042.198.111.383.199.567q.066.137.148.269.084.126.183.246.14.17.309.317a16 16 0 0 1-1.628-.894 3.6 3.6 0 0 0 .422-1.101 4 4 0 0 0-.021-1.752 3 3 0 0 0-.17-.515 3 3 0 0 0-.253-.462 3 3 0 0 0-.341-.402c-.617.641-.959 1.443-.915 2.248.007.204.046.398.102.593q.042.146.102.289.06.14.139.274.116.203.27.384a17 17 0 0 1-1.479-1.165c.266-.315.461-.661.604-1.023a4 4 0 0 0 .268-1.167 3.3 3.3 0 0 0 0-.564 3 3 0 0 0-.083-.537 2.6 2.6 0 0 0-.443-.95c-.357.267-.652.58-.871.931a2.7 2.7 0 0 0-.403 1.135q-.037.303.002.602c.025.2.068.405.145.595.063.159.137.319.231.469a16 16 0 0 1-1.301-1.435c.316-.267.57-.581.771-.915a4 4 0 0 0 .374-.825q.047-.141.083-.282c.179-.748.148-1.476-.178-2.107a3.5 3.5 0 0 0-1.013.772 3 3 0 0 0-.356.498 2.8 2.8 0 0 0-.299.849 3 3 0 0 0-.029.299c-.007.2 0 .411.044.611q.054.267.163.527a16 16 0 0 1-1.067-1.651 3.7 3.7 0 0 0 .922-.78c.271-.317.475-.66.635-1.015.079-.177.136-.353.186-.532q.076-.269.096-.532a2.4 2.4 0 0 0 0-.526 2.4 2.4 0 0 0-.105-.515 3.5 3.5 0 0 0-1.128.592q-.242.194-.435.432a2.7 2.7 0 0 0-.515 1.077c-.04.197-.066.404-.059.61q.01.288.08.578-.45-.893-.788-1.835a3.7 3.7 0 0 0 1.045-.616c.32-.267.579-.571.796-.894a4 4 0 0 0 .272-.493q.119-.252.184-.509c.046-.171.08-.345.089-.518q.006-.13.005-.262a2 2 0 0 0-.023-.264 3.4 3.4 0 0 0-1.211.395q-.272.152-.5.353a2.7 2.7 0 0 0-.561.703 2.62 2.62 0 0 0-.288.864 3 3 0 0 0-.016.625l-.025-.079-.16-.552-.137-.558a5 5 0 0 1-.062-.281l-.056-.282q-.022-.114-.042-.229c.415-.08.8-.236 1.142-.435a4.2 4.2 0 0 0 .934-.749 3.4 3.4 0 0 0 .349-.442q.161-.23.268-.473.052-.122.099-.246.045-.124.074-.253c.035-.17.065-.345.068-.524-.889-.026-1.714.26-2.28.833a2.4 2.4 0 0 0-.372.474 3 3 0 0 0-.207.411 2.854 2.854 0 0 0-.169.764l-.001.042a17 17 0 0 1-.139-1.456 16 16 0 0 1-.015-.623 3.6 3.6 0 0 0 1.207-.241q.293-.111.554-.26.258-.149.491-.326t.417-.379q.197-.2.342-.422c.2-.295.338-.615.405-.965a3.4 3.4 0 0 0-1.274-.02 3 3 0 0 0-.587.171 2.8 2.8 0 0 0-.761.482q-.11.102-.208.217a2.622 2.622 0 0 0-.563 1.097l-.019.098a16 16 0 0 1 .192-2.135c.425.062.846.041 1.24-.037a4.2 4.2 0 0 0 1.127-.404c.678-.367 1.189-.88 1.44-1.543a3.4 3.4 0 0 0-1.251-.233c-.41.005-.817.094-1.172.271a2.6 2.6 0 0 0-.932.768 3 3 0 0 0-.314.545l-.053.142q.073-.389.164-.773.166-.684.391-1.351c.412.135.833.185 1.237.174a4.2 4.2 0 0 0 1.178-.21c.733-.247 1.323-.668 1.681-1.281a3.5 3.5 0 0 0-1.199-.441 2.8 2.8 0 0 0-1.201.072 2.8 2.8 0 0 0-.554.237 2.623 2.623 0 0 0-.994 1.03q.078-.213.162-.424.334-.835.76-1.629a3.6 3.6 0 0 0 1.195.38c.414.059.819.051 1.198-.01.763-.123 1.418-.438 1.873-.985A3.5 3.5 0 0 0 8.337 7.7a2.746 2.746 0 0 0-1.198-.128 2.5 2.5 0 0 0-.585.141 2.361 2.361 0 0 0-.545.279 2.5 2.5 0 0 0-.644.616q.57-1.006 1.278-1.923c.348.268.734.456 1.125.58.397.125.794.181 1.182.188.772.004 1.469-.202 2.009-.664a3.4 3.4 0 0 0-.988-.806 3 3 0 0 0-.861-.295 2.7 2.7 0 0 0-.899.012q-.297.06-.584.184a3 3 0 0 0-.537.327 3 3 0 0 0-.258.237q.752-.936 1.634-1.75c.301.325.652.576 1.018.763.366.184.759.317 1.134.38.763.134 1.484.047 2.092-.32a3.5 3.5 0 0 0-.841-.96 2.75 2.75 0 0 0-1.09-.513 2.6 2.6 0 0 0-1.789.264q-.2.107-.382.254.683-.616 1.43-1.151-.757.535-1.449 1.153A4.14 4.14 0 0 0 9.706 2.49c.093-.41.115-.849.068-1.271a3 3 0 0 0-.408-1.224q-.171.104-.329.221a4.167 4.167 0 0 0-.557.522 4 4 0 0 0-.224.293 3 3 0 0 0-.34.623c-.086.216-.152.43-.188.65-.148.877.125 1.733.727 2.385a16 16 0 0 0-1.674 1.774 4.2 4.2 0 0 0 .694-2.801 3.7 3.7 0 0 0-.124-.628 3 3 0 0 0-.606-1.14 4 4 0 0 0-.536.568c-.155.202-.281.42-.387.636-.204.442-.31.899-.307 1.344a2.74 2.74 0 0 0 .292 1.247c.188.375.463.704.811.977A16 16 0 0 0 5.311 8.61a4.18 4.18 0 0 0 .178-2.791 4 4 0 0 0-.225-.597 3.04 3.04 0 0 0-.786-1.025c-.341.411-.58.874-.711 1.341a3.4 3.4 0 0 0-.119.699q-.017.35.035.676c.075.439.246.841.494 1.182.249.338.573.616.957.827a16 16 0 0 0-.941 2.061 4.2 4.2 0 0 0-.078-2.108 3.8 3.8 0 0 0-.551-1.149 3 3 0 0 0-.942-.879 3.6 3.6 0 0 0-.322.713c-.084.24-.131.487-.158.729a3 3 0 0 0 0 .71 2.9 2.9 0 0 0 .429 1.249c.112.181.252.348.404.496.298.289.66.508 1.07.651q-.23.668-.401 1.354-.096.39-.172.784a4.2 4.2 0 0 0-.429-2.01 4 4 0 0 0-.734-1.041 3.1 3.1 0 0 0-1.08-.711 4.3 4.3 0 0 0-.199.757 4 4 0 0 0-.034.745c.034.487.16.939.377 1.329.209.388.508.713.857.953a2.9 2.9 0 0 0 1.155.461q-.082.504-.133 1.011-.056.57-.074 1.143a4.2 4.2 0 0 0-1.166-2.347 3.6 3.6 0 0 0-.484-.415 3 3 0 0 0-1.183-.52H.35a3.7 3.7 0 0 0 .022 1.519q.088.356.232.67.155.314.36.575a2.742 2.742 0 0 0 1.003.797c.367.173.78.26 1.208.264q0 .313.012.627.033.75.134 1.495a4.14 4.14 0 0 0-1.034-1.673C1.682 16.567.895 16.13.001 16.104c-.025 1.07.396 2.03 1.06 2.621a2.74 2.74 0 0 0 1.12.622c.392.109.805.129 1.226.063l.04.23.055.284q.025.143.06.283l.135.564.157.558.032.102a4.2 4.2 0 0 0-1.824-1.759 3.7 3.7 0 0 0-.592-.235 3 3 0 0 0-1.287-.106q.03.198.076.389.044.191.113.37c.091.239.197.465.326.67q.2.308.44.558c.16.166.343.307.528.428.368.241.788.383 1.209.427a2.9 2.9 0 0 0 1.212-.141q.34.964.795 1.881a4.2 4.2 0 0 0-2.07-1.4 3.7 3.7 0 0 0-.623-.133 3 3 0 0 0-1.287.11c.086.254.184.497.313.718.13.22.273.425.434.607q.248.271.527.476c.186.137.389.246.592.333.403.176.841.245 1.263.218.4-.026.79-.14 1.161-.336q.485.877 1.075 1.687a4.2 4.2 0 0 0-2.24-1.005 4 4 0 0 0-.637-.027c-.426.021-.854.12-1.251.324q.093.178.2.342.104.166.228.312c.165.195.338.374.529.525q.29.225.598.382a3.1 3.1 0 0 0 .961.289q.163.019.325.019.324 0 .634-.073c.386-.09.753-.268 1.085-.521a17 17 0 0 0 1.302 1.454 4.2 4.2 0 0 0-1.694-.571 4 4 0 0 0-1.272.058c-.417.091-.822.26-1.179.527.319.429.716.766 1.139 1.003q.322.175.652.278.337.096.668.12c.218.018.439.005.652-.031a2.7 2.7 0 0 0 .612-.176c.362-.151.694-.387.978-.687q.72.647 1.512 1.205a4.2 4.2 0 0 0-1.747-.275c-.847.048-1.7.338-2.319.981.194.184.398.348.618.478.218.132.439.246.671.323.231.079.459.139.689.166q.347.04.678.01a2.8 2.8 0 0 0 1.213-.413c.33-.208.617-.493.846-.832q.247.157.499.307.564.33 1.154.613a4.2 4.2 0 0 0-1.726.028c-.412.087-.82.251-1.183.47a3 3 0 0 0-.941.881q.166.112.337.207.174.09.352.162c.236.096.474.169.716.207.241.039.474.063.708.05a3.3 3.3 0 0 0 .67-.101 2.8 2.8 0 0 0 1.128-.609c.291-.261.524-.586.693-.956.773.325 1.57.593 2.383.799l.056-.228a16.5 16.5 0 0 1-2.355-.773c.144-.379.213-.766.228-1.145Z"/><path d="M12.42 3.072c.689-.358 1.271-.938 1.661-1.744-.8-.388-1.751-.342-2.529.063-.78.4-1.368 1.149-1.514 2.028.881.147 1.691.008 2.382-.347M15.794 24.555l-.5-1.539-.5 1.539h-1.618l1.309.951-.5 1.538 1.309-.951 1.309.951-.5-1.538 1.309-.951zM22.24 24.555h-1.618l-.499-1.539-.5 1.539h-1.618l1.309.951-.5 1.538 1.309-.951 1.308.951-.5-1.538z"/><path d="m24.951 19.481-.992 3.053H20.75l2.596 1.886-.991 3.052 2.596-1.886 2.597 1.886-.992-3.052 2.596-1.886h-3.209z"/><path d="m30.28 24.555-.5-1.539-.5 1.539h-1.618l1.309.951-.5 1.538 1.309-.951 1.308.951-.5-1.538 1.309-.951zM34.608 26.093l1.309.951-.5-1.538 1.309-.951h-1.618l-.5-1.539-.5 1.539H32.49l1.309.951-.5 1.538z"/></svg>