<?xml version="1.0" encoding="UTF-8"?>
<svg id="Working" xmlns="http://www.w3.org/2000/svg" xmlns:xlink="http://www.w3.org/1999/xlink" viewBox="0 0 100 100">
  <defs>
    <style>
      .cls-1 {
        fill: url(#linear-gradient);
      }

      .cls-2 {
        fill: #2a429b;
      }

      .cls-3 {
        opacity: .1;
      }

      .cls-4 {
        fill: #ff451a;
      }
    </style>
    <linearGradient id="linear-gradient" x1="58.1631" y1="40.9242" x2="90.4904" y2="11.4718" gradientUnits="userSpaceOnUse">
      <stop offset="0" stop-color="#ff451a" stop-opacity=".8"/>
      <stop offset="1" stop-color="#ff451a" stop-opacity=".0406"/>
    </linearGradient>
  </defs>
  <path class="cls-1" d="M74.2274.5156c-14.2114,0-25.7736,11.5617-25.7736,25.7731s11.5622,25.7731,25.7736,25.7731,25.7726-11.5617,25.7726-25.7731S88.4388.5156,74.2274.5156ZM74.2274,32.2679c-3.2977,0-5.9797-2.682-5.9797-5.9792s2.682-5.9792,5.9797-5.9792,5.9788,2.682,5.9788,5.9792-2.682,5.9792-5.9788,5.9792Z"/>
  <g>
    <path class="cls-4" d="M70.4503,23.8417l-1.3936-.5429c-.5114.8807-.8091,1.9001-.8091,2.9899,0,3.2971,2.6818,5.979,5.9794,5.9792v-2.8882c0-2.4515-1.4994-4.6502-3.7767-5.538Z"/>
    <path class="cls-4" d="M48.4538,26.2887c0-3.6203.7539-7.0668,2.1072-10.1959l-11.0282-4.2967c-1.5561-.6078-3.2846-.6078-4.8407,0L3.7768,23.8417c-2.2774.8878-3.7768,3.0866-3.7768,5.538v17.5269c0,18.8903,9.5747,36.4853,25.4122,46.6964l6.9503,4.4818c2.8943,1.8661,6.6077,1.8661,9.502,0l6.9502-4.4818c14.3868-9.2757,23.5787-24.6501,25.1468-41.548-14.0889-.1438-25.5078-11.6441-25.5078-25.7663Z"/>
  </g>
  <g class="cls-3">
    <path class="cls-2" d="M74.2274,52.0618c-14.2114,0-25.7736-11.5617-25.7736-25.7731S60.016.5156,74.2274.5156s25.7726,11.5617,25.7726,25.7731-11.5612,25.7731-25.7726,25.7731ZM74.2274,20.3095c-3.2977,0-5.9797,2.682-5.9797,5.9792s2.682,5.9792,5.9797,5.9792,5.9788-2.682,5.9788-5.9792-2.682-5.9792-5.9788-5.9792Z"/>
  </g>
</svg>