<svg width="176" height="80" viewBox="0 0 176 80" fill="none" xmlns="http://www.w3.org/2000/svg">
<g clip-path="url(#clip0_117_54)">
<path d="M0 80L50.0372 17.7532H50.2149C48.2 21.1649 41.5021 33.1693 41.5021 42.4254C41.5021 49.1357 49.472 57.0675 51.6646 59.3943H51.3923C48.7025 57.5285 41.2222 51.8792 34.4692 51.8792C26.1908 51.8792 8.77069 70.4098 0.31392 80H0Z" fill="#6BD63D"/>
<path d="M57.0761 0L7.03898 62.2468H6.86125C8.87619 58.8351 15.5741 46.8307 15.5741 37.5747C15.5741 30.8643 7.60417 22.9325 5.4115 20.6057H5.68388C8.37365 22.4715 15.8539 28.1208 22.6069 28.1208C30.8853 28.1208 48.3055 9.59023 56.7622 0L57.0761 0Z" fill="#6BD63D"/>
<path d="M86.3538 29.0851H79.6975L72.7034 39.7876L65.7495 29.0851H59.0081L69.0855 43.702L57.9907 59.442H64.6893L72.7007 47.6252L80.6726 59.442H87.4134L76.3581 43.6999L86.3538 29.0851Z" fill="#6BD63D"/>
<path d="M109.304 38.2348H102.694L93.5999 47.6129V29.0851H88.0848V59.442H93.5999V49.6833L103.494 59.442H110.567L99.164 48.4292L109.304 38.2348Z" fill="#6BD63D"/>
<path d="M124.413 38.6139C122.855 37.9115 121.037 37.5596 118.961 37.5596C117.108 37.5596 115.382 37.8761 113.782 38.5082C112.182 39.1404 110.82 40.0194 109.698 41.1433L112.561 44.5162C113.375 43.6726 114.301 43.0125 115.339 42.5345C116.378 42.0571 117.514 41.8177 118.749 41.8177C120.405 41.8177 121.718 42.233 122.686 43.0616C123.58 43.8274 124.06 44.8749 124.129 46.2027H119.171C117.122 46.2027 115.326 46.4843 113.782 47.0462C112.238 47.6088 111.045 48.4101 110.203 49.4494C109.361 50.4894 108.94 51.7408 108.94 53.2022C108.94 54.5511 109.284 55.7465 109.972 56.7858C110.66 57.8258 111.621 58.6407 112.856 59.2313C114.09 59.8218 115.522 60.1164 117.15 60.1164C118.946 60.1164 120.525 59.7434 121.887 58.9994C122.864 58.4648 123.683 57.7787 124.35 56.9467V59.442H129.402V46.4141C129.402 44.5312 128.96 42.9354 128.075 41.6288C127.191 40.3215 125.971 39.317 124.413 38.6139ZM123.655 53.3495C123.08 54.1787 122.343 54.8252 121.445 55.2889C120.546 55.7527 119.535 55.9845 118.413 55.9845C117.291 55.9845 116.372 55.7104 115.655 55.1621C114.94 54.6138 114.581 53.8909 114.581 52.9908C114.581 51.9515 115.044 51.157 115.97 50.6087C116.897 50.0604 118.103 49.7863 119.591 49.7863H124.138V52.4977C124.002 52.7923 123.842 53.0767 123.654 53.3488L123.655 53.3495Z" fill="#6BD63D"/>
<path d="M136.341 29.0851H130.826V59.442H136.341V29.0851Z" fill="#6BD63D"/>
<path d="M154.65 38.9726C153.008 38.0316 151.134 37.5603 149.03 37.5603C146.868 37.5603 144.925 38.0384 143.198 38.9938C141.472 39.9499 140.11 41.2776 139.115 42.9784C138.118 44.6792 137.62 46.6398 137.62 48.8602C137.62 51.0806 138.139 53.0344 139.178 54.7209C140.216 56.4073 141.662 57.7289 143.514 58.6844C145.367 59.6398 147.514 60.1178 149.956 60.1178C151.977 60.1178 153.822 59.7734 155.492 59.0847C157.161 58.3966 158.529 57.4337 159.597 56.1966L156.649 52.8237C154.909 54.7918 152.776 55.7752 150.25 55.7752C148.874 55.7752 147.653 55.501 146.587 54.9527C145.52 54.4044 144.693 53.6038 144.103 52.5496C143.762 51.9413 143.524 51.2579 143.38 50.5044H159.891V48.6495C159.891 46.457 159.428 44.5319 158.502 42.8734C157.575 41.2149 156.291 39.9151 154.649 38.9733L154.65 38.9726ZM145.999 42.7043C146.868 42.1423 147.879 41.8607 149.03 41.8607C150.124 41.8607 151.078 42.1348 151.892 42.6831C152.706 43.2314 153.337 43.9836 153.787 44.939C154.075 45.5521 154.269 46.2415 154.372 47.0053H143.362C143.482 46.3063 143.679 45.6653 143.956 45.087C144.447 44.0613 145.127 43.2676 145.998 42.705L145.999 42.7043Z" fill="#6BD63D"/>
<path d="M161.033 38.2348H163.071V31.4023H165.574V29.6068H158.513V31.4023H161.033V38.2348Z" fill="#6BD63D"/>
<path d="M173.028 29.6068L171.329 35.3106L169.649 29.6068H166.658V38.2348H168.696V31.8265L170.573 38.2348H172.086L173.963 31.8081V38.2348H176V29.6068H173.028Z" fill="#6BD63D"/>
</g>
<defs>
<clipPath id="clip0_117_54">
<rect width="176" height="80" fill="white"/>
</clipPath>
</defs>
</svg>
